<svg xmlns="http://www.w3.org/2000/svg"  viewBox="0 0 48 48" width="500px" height="500px"><path d="M4.002 43.998l14.509-16.789L3.002 6.998h13L26.615 20.83c.172.196.469.227.68.065.219-.168.26-.483.092-.701l-1.324-1.724 9.915-11.472h6.024L28.23 22.934l16.167 21.064H31.398L21.345 30.901 10.026 43.998H4.002zM33.121 43.002L7.021 8.994h9.256l-.767-1H5.021l26.868 35.008H33.121zM36.786 39.998l-22.254-29h-3.917l22.259 29H36.786zM24.01 46.998c11.035 0 19.992.225 19.992.501s-8.957.501-19.992.501S4.018 47.775 4.018 47.499 12.975 46.998 24.01 46.998z"/></svg>